<svg width="101" height="13" viewBox="0 0 101 13" fill="none" xmlns="http://www.w3.org/2000/svg">
    <g clip-path="url(#clip0)">
        <path d="M6.4917 9.04785L2.4917 11.0479L3.4917 7.04785L0.491699 4.04785H4.4917L6.4917 0.0478516L7.4917 4.04785H11.4917L8.4917 7.04785L9.4917 11.0479L6.4917 9.04785Z" fill="black"/>
    </g>
    <g clip-path="url(#clip1)">
        <path d="M28.4917 9.04785L24.4917 11.0479L25.4917 7.04785L22.4917 4.04785H26.4917L28.4917 0.0478516L29.4917 4.04785H33.4917L30.4917 7.04785L31.4917 11.0479L28.4917 9.04785Z" fill="black"/>
    </g>
    <g clip-path="url(#clip2)">
        <path d="M50.4917 9.04785L46.4917 11.0479L47.4917 7.04785L44.4917 4.04785H48.4917L50.4917 0.0478516L51.4917 4.04785H55.4917L52.4917 7.04785L53.4917 11.0479L50.4917 9.04785Z" fill="black"/>
    </g>
    <g clip-path="url(#clip3)">
        <path d="M72.4917 9.04785L68.4917 11.0479L69.4917 7.04785L66.4917 4.04785H70.4917L72.4917 0.0478516L73.4917 4.04785H77.4917L74.4917 7.04785L75.4917 11.0479L72.4917 9.04785Z" fill="black"/>
    </g>
    <g clip-path="url(#clip4)">
        <path d="M94.4917 9.04785L90.4917 11.0479L91.4917 7.04785L88.4917 4.04785H92.4917L94.4917 0.0478516L95.4917 4.04785H99.4917L96.4917 7.04785L97.4917 11.0479L94.4917 9.04785Z" fill="black"/>
    </g>
    <defs>
        <clipPath id="clip0">
            <rect width="12" height="12" fill="white" transform="translate(0.491699 0.0478516)"/>
        </clipPath>
        <clipPath id="clip1">
            <rect width="12" height="12" fill="white" transform="translate(22.4917 0.0478516)"/>
        </clipPath>
        <clipPath id="clip2">
            <rect width="12" height="12" fill="white" transform="translate(44.4917 0.0478516)"/>
        </clipPath>
        <clipPath id="clip3">
            <rect width="12" height="12" fill="white" transform="translate(66.4917 0.0478516)"/>
        </clipPath>
        <clipPath id="clip4">
            <rect width="12" height="12" fill="white" transform="translate(88.4917 0.0478516)"/>
        </clipPath>
    </defs>
</svg>
