<?xml version="1.0" encoding="utf-8"?>
<!-- Generator: Adobe Illustrator 23.0.6, SVG Export Plug-In . SVG Version: 6.00 Build 0)  -->
<svg version="1.1" id="Layer_1" focusable="false" xmlns="http://www.w3.org/2000/svg" xmlns:xlink="http://www.w3.org/1999/xlink"
	 x="0px" y="0px" viewBox="0 0 544 512" style="enable-background:new 0 0 544 512;" xml:space="preserve">
<style type="text/css">
	.st0{fill:#CCCCCC;}
</style>
<path class="st0" d="M0,480l99.9,32l35.4-35.5l-67-67L0,480z M124.6,240c-10.8,9.5-15,24.4-10.8,38.1l13.1,42.8l-50.9,50.9
	l96.2,96.2l50.9-50.9l42.7,13.1c13.7,4.2,28.6,0,38.1-10.8l35.5-41.6L166.1,204.5L124.6,240L124.6,240z M527.9,79.3l-63.2-63.2
	c-20.5-20.5-53.4-21.5-75.1-2.4l-199,170l169.8,169.8l170-199.1C549.5,132.7,548.4,99.8,527.9,79.3L527.9,79.3z"/>
</svg>
