<svg xmlns="http://www.w3.org/2000/svg" width="24" height="24" viewBox="0 0 24 24">
  <g id="Group_172" data-name="Group 172" transform="translate(-83 -127)">
    <g id="Rectangle_91" data-name="Rectangle 91" transform="translate(83 127)" fill="#4d4d4d" stroke="#707070" stroke-width="1" opacity="0">
      <rect width="24" height="24" stroke="none"/>
      <rect x="0.5" y="0.5" width="23" height="23" fill="none"/>
    </g>
    <path id="Icon_awesome-linkedin-in" data-name="Icon awesome-linkedin-in" d="M3.525,15.75H.26V5.235H3.525ZM1.891,3.8A1.9,1.9,0,1,1,3.782,1.891,1.907,1.907,0,0,1,1.891,3.8ZM15.746,15.75H12.488V10.631c0-1.22-.025-2.784-1.7-2.784-1.7,0-1.958,1.325-1.958,2.7V15.75H5.571V5.235H8.7V6.669h.046a3.431,3.431,0,0,1,3.09-1.7c3.3,0,3.912,2.176,3.912,5V15.75Z" transform="translate(87 131)" fill="#4d4d4d"/>
  </g>
</svg>
