<svg xmlns="http://www.w3.org/2000/svg" width="24" height="24" viewBox="0 0 24 24">
  <g id="Group_171" data-name="Group 171" transform="translate(-57 -127)">
    <g id="Rectangle_90" data-name="Rectangle 90" transform="translate(57 127)" fill="#4d4d4d" stroke="#707070" stroke-width="1" opacity="0">
      <rect width="24" height="24" stroke="none"/>
      <rect x="0.5" y="0.5" width="23" height="23" fill="none"/>
    </g>
    <path id="Icon_ionic-logo-twitter" data-name="Icon ionic-logo-twitter" d="M17.412,3.861a6.929,6.929,0,0,1-1.968.542,3.439,3.439,0,0,0,1.508-1.9,6.81,6.81,0,0,1-2.177.832A3.426,3.426,0,0,0,8.845,5.68a3.355,3.355,0,0,0,.089.782A9.713,9.713,0,0,1,1.868,2.877,3.434,3.434,0,0,0,2.933,7.457a3.347,3.347,0,0,1-1.558-.428v.042a3.43,3.43,0,0,0,2.751,3.363,3.45,3.45,0,0,1-.9.12,3.233,3.233,0,0,1-.644-.064,3.433,3.433,0,0,0,3.2,2.382,6.872,6.872,0,0,1-4.259,1.469,6.947,6.947,0,0,1-.818-.05,9.58,9.58,0,0,0,5.246,1.551,9.694,9.694,0,0,0,9.76-9.763c0-.149,0-.3-.011-.443A6.977,6.977,0,0,0,17.412,3.861Z" transform="translate(60.321 129.785)" fill="#4d4d4d"/>
  </g>
</svg>
